Coordinates
version=1
nRows=26
nColumns=38
inDegrees=no

Units are S.I. units (second, meters, Newtons, ...)
If the header above contains a line with 'inDegrees', this indicates whether rotational values are in degrees (yes) or radians (no).

endheader
time	pelvis_tilt	pelvis_list	pelvis_rotation	pelvis_tx	pelvis_ty	pelvis_tz	hip_flexion_r	hip_adduction_r	hip_rotation_r	knee_angle_r	ankle_angle_r	subtalar_angle_r	mtp_angle_r	hip_flexion_l	hip_adduction_l	hip_rotation_l	knee_angle_l	ankle_angle_l	subtalar_angle_l	mtp_angle_l	lumbar_extension	lumbar_bending	lumbar_rotation	arm_flex_r	arm_add_r	arm_rot_r	elbow_flex_r	pro_sup_r	wrist_flex_r	wrist_dev_r	arm_flex_l	arm_add_l	arm_rot_l	elbow_flex_l	pro_sup_l	wrist_flex_l	wrist_dev_l
5.575	-0.21594	-0.0184938	-3.09683	-0.209554	0.95971	-0.013231	0.252614	-0.0354814	-0.139314	0.257754	-0.0552544	0	0	-0.353744	0.0655755	0.0426935	0.386065	0.377948	0	0	-0.429715	0.0474051	-0.127674	0.17259	-0.34338	1.46382	0.414222	0.0446771	0	0	0.507952	-0.398716	1.30129	0.699279	0.303722	0	0
5.58499	-0.215732	-0.0150976	-3.09177	-0.211069	0.959632	-0.0144651	0.249617	-0.0336101	-0.148259	0.271228	-0.0618939	0	0	-0.356917	0.0576145	0.0437368	0.398643	0.374621	0	0	-0.427356	0.0536565	-0.127414	0.170083	-0.344061	1.46386	0.414397	0.044743	0	0	0.498189	-0.391434	1.31124	0.692172	0.302962	0	0
5.59498	-0.215471	-0.0112784	-3.08698	-0.212713	0.959653	-0.0157887	0.246245	-0.0312052	-0.157272	0.284437	-0.0672737	0	0	-0.359219	0.0490614	0.0439537	0.412562	0.369326	0	0	-0.424767	0.0601782	-0.126443	0.16784	-0.344736	1.46391	0.414638	0.0447184	0	0	0.487349	-0.383936	1.3204	0.684893	0.300481	0	0
5.60497	-0.215084	-0.00709006	-3.08257	-0.214461	0.959773	-0.0172108	0.242594	-0.0282387	-0.166037	0.297282	-0.0708409	0	0	-0.360366	0.0399541	0.0431451	0.428092	0.361787	0	0	-0.421932	0.0668675	-0.124715	0.165928	-0.34539	1.46395	0.41496	0.0446005	0	0	0.475464	-0.376294	1.32858	0.677564	0.296141	0	0
5.61496	-0.214507	-0.00259267	-3.07861	-0.216285	0.959994	-0.0187388	0.238736	-0.0246954	-0.174281	0.309644	-0.072221	0	0	-0.360067	0.0303212	0.0411094	0.445517	0.351726	0	0	-0.418851	0.0736173	-0.122194	0.16443	-0.346006	1.46399	0.415391	0.0443918	0	0	0.462604	-0.368579	1.33566	0.670286	0.289835	0	0
5.62496	-0.213685	0.00215528	-3.07518	-0.218152	0.96032	-0.020378	0.234704	-0.0205673	-0.181788	0.321367	-0.0712468	0	0	-0.358041	0.0201754	0.0376592	0.465115	0.338883	0	0	-0.415546	0.0803267	-0.118859	0.163433	-0.346572	1.46404	0.415968	0.0441014	0	0	0.44887	-0.360858	1.34155	0.663145	0.281501	0	0
5.63495	-0.212584	0.00709794	-3.0723	-0.220026	0.960749	-0.0221303	0.230491	-0.0158542	-0.188409	0.332256	-0.0679407	0	0	-0.354033	0.00951426	0.0326453	0.48714	0.323042	0	0	-0.412057	0.0869049	-0.114708	0.163031	-0.347076	1.46408	0.416745	0.0437469	0	0	0.434387	-0.353197	1.34624	0.656213	0.271139	0	0
5.64494	-0.211182	0.0121798	-3.07001	-0.221871	0.961279	-0.0239937	0.226068	-0.01057	-0.194064	0.342104	-0.0624813	0	0	-0.34783	-0.0016733	0.0259785	0.511795	0.304059	0	0	-0.408432	0.0932704	-0.109762	0.163317	-0.347513	1.46412	0.417777	0.0433575	0	0	0.419296	-0.345658	1.34978	0.649543	0.258802	0	0
5.65493	-0.209479	0.0173437	-3.06827	-0.223652	0.961904	-0.0259619	0.221385	-0.00474874	-0.198745	0.350715	-0.0551661	0	0	-0.339279	-0.0133995	0.0176556	0.539216	0.281898	0	0	-0.40473	0.0993526	-0.104073	0.164374	-0.34788	1.46416	0.419133	0.0429772	0	0	0.403749	-0.3383	1.3523	0.643173	0.244596	0	0
5.66492	-0.207501	0.0225304	-3.06703	-0.225333	0.962615	-0.0280228	0.216374	0.00155278	-0.202508	0.357922	-0.0463728	0	0	-0.328305	-0.0256694	0.00778013	0.569455	0.256659	0	0	-0.401022	0.105095	-0.0977273	0.166276	-0.348181	1.46421	0.420881	0.042669	0	0	0.387903	-0.33118	1.35396	0.637133	0.228691	0	0
5.67491	-0.205303	0.02768	-3.06621	-0.226885	0.9634	-0.0301587	0.210951	0.00825596	-0.205454	0.363597	-0.0365155	0	0	-0.314917	-0.0384706	-0.00342779	0.602469	0.228591	0	0	-0.397395	0.110459	-0.0908445	0.169092	-0.348423	1.46425	0.423084	0.0425184	0	0	0.371911	-0.32435	1.35493	0.631447	0.211338	0	0
5.6849	-0.20297	0.0327326	-3.06567	-0.228277	0.964246	-0.032347	0.205022	0.0152626	-0.20773	0.367669	-0.0259996	0	0	-0.299217	-0.051763	-0.0156318	0.63811	0.198086	0	0	-0.393954	0.115422	-0.0835721	0.172878	-0.34862	1.46429	0.425795	0.0426366	0	0	0.35592	-0.317859	1.35537	0.62613	0.192875	0	0
5.69489	-0.200607	0.0376307	-3.06529	-0.229485	0.965136	-0.0345613	0.198495	0.0224602	-0.20951	0.370139	-0.0151867	0	0	-0.281391	-0.0654713	-0.0284025	0.676125	0.165666	0	0	-0.390823	0.119982	-0.0760747	0.177682	-0.348795	1.46434	0.42905	0.0431619	0	0	0.340065	-0.311739	1.35544	0.621173	0.173736	0	0
5.70488	-0.198327	0.0423144	-3.06491	-0.230487	0.966057	-0.0367729	0.191296	0.0297229	-0.210975	0.371078	-0.00436976	0	0	-0.261686	-0.0794779	-0.0412565	0.716169	0.131962	0	0	-0.388126	0.124143	-0.0685254	0.183538	-0.348973	1.46438	0.43287	0.0442585	0	0	0.324463	-0.306013	1.35525	0.616545	0.154439	0	0
5.71487	-0.19624	0.0467256	-3.0644	-0.231266	0.966994	-0.0389536	0.183373	0.0369215	-0.212284	0.370607	0.00622948	0	0	-0.24039	-0.0936287	-0.0537167	0.757809	0.0976813	0	0	-0.385981	0.127911	-0.0610876	0.190471	-0.34918	1.46442	0.437254	0.0461113	0	0	0.309214	-0.300685	1.35491	0.612188	0.135554	0	0
5.72487	-0.194453	0.0508148	-3.06365	-0.231812	0.967938	-0.041079	0.174694	0.0439396	-0.213549	0.368881	0.0164472	0	0	-0.217833	-0.107747	-0.0653667	0.800543	0.0635834	0	0	-0.3845	0.131295	-0.0538901	0.198488	-0.349446	1.46446	0.442188	0.0489149	0	0	0.294402	-0.295746	1.35449	0.608031	0.117664	0	0
5.73486	-0.193059	0.0545406	-3.0626	-0.232118	0.968881	-0.0431286	0.165241	0.0506785	-0.214837	0.366063	0.0261672	0	0	-0.194367	-0.121643	-0.0758843	0.843806	0.0304661	0	0	-0.383786	0.134302	-0.0470164	0.20758	-0.349803	1.4645	0.447635	0.0528549	0	0	0.2801	-0.291168	1.35405	0.603996	0.101319	0	0
5.74485	-0.192127	0.057863	-3.06122	-0.232186	0.969819	-0.0450873	0.155023	0.0570525	-0.216168	0.36232	0.0353141	0	0	-0.170348	-0.135119	-0.0850594	0.886994	-0.000845429	0	0	-0.383915	0.136929	-0.0405057	0.217712	-0.350282	1.46454	0.453546	0.0580804	0	0	0.266364	-0.286917	1.35363	0.60001	0.0869929	0	0
5.75484	-0.191689	0.0607387	-3.05951	-0.232023	0.970751	-0.0469455	0.144084	0.0629854	-0.217519	0.357812	0.0438446	0	0	-0.146116	-0.147972	-0.0928045	0.929486	-0.0295106	0	0	-0.384924	0.139153	-0.0343542	0.228826	-0.350904	1.46458	0.459853	0.0646642	0	0	0.253233	-0.282954	1.35323	0.596015	0.0750139	0	0
5.76483	-0.191748	0.0631194	-3.05754	-0.23164	0.971679	-0.0486991	0.13249	0.0684094	-0.218829	0.35269	0.0517343	0	0	-0.121987	-0.160007	-0.0991512	0.970675	-0.054685	0	0	-0.386807	0.140927	-0.0285197	0.240843	-0.351678	1.46461	0.466477	0.0725804	0	0	0.240727	-0.279244	1.35289	0.59198	0.0654897	0	0
5.77482	-0.192279	0.0649562	-3.05539	-0.231054	0.972606	-0.0503491	0.120324	0.0732687	-0.220008	0.347078	0.058972	0	0	-0.0982453	-0.171047	-0.104235	1.00999	-0.0755383	0	0	-0.389522	0.142189	-0.0229288	0.253664	-0.3526	1.46465	0.473332	0.0817265	0	0	0.228853	-0.275755	1.3526	0.587899	0.0582928	0	0
5.78481	-0.193235	0.0662008	-3.05317	-0.230285	0.973538	-0.0519003	0.107677	0.0775179	-0.220941	0.341073	0.0655596	0	0	-0.0751218	-0.180941	-0.108266	1.04694	-0.0913279	0	0	-0.392989	0.14286	-0.0174925	0.267184	-0.35365	1.46468	0.480328	0.0919526	0	0	0.217599	-0.272466	1.35235	0.583793	0.0531563	0	0
5.7948	-0.194551	0.0668093	-3.05102	-0.229353	0.974479	-0.0533595	0.0946449	0.0811202	-0.221505	0.334747	0.0715157	0	0	-0.0527898	-0.189574	-0.111502	1.08106	-0.101566	0	0	-0.3971	0.142861	-0.0121212	0.281289	-0.3548	1.46471	0.487379	0.103084	0	0	0.206936	-0.269365	1.35215	0.579701	0.0497452	0	0
5.80479	-0.196154	0.0667523	-3.04905	-0.228277	0.975436	-0.0547349	0.081317	0.0840531	-0.221587	0.328154	0.0768739	0	0	-0.03137	-0.196872	-0.114223	1.11198	-0.106196	0	0	-0.401736	0.142123	-0.00673387	0.29587	-0.35602	1.46474	0.494414	0.114934	0	0	0.196819	-0.266447	1.35199	0.575676	0.0477082	0	0
5.81478	-0.197976	0.0660211	-3.04738	-0.227077	0.976419	-0.0560336	0.0677727	0.0863115	-0.221106	0.321336	0.0816829	0	0	-0.010941	-0.202798	-0.11669	1.13933	-0.105651	0	0	-0.406774	0.140606	-0.00127117	0.310828	-0.357279	1.46477	0.501383	0.127294	0	0	0.187197	-0.263714	1.35186	0.571775	0.0467114	0	0
5.82478	-0.199944	0.0646292	-3.04609	-0.225772	0.977435	-0.0572604	0.0540792	0.0879058	-0.220016	0.314319	0.0860096	0	0	0.00845496	-0.207346	-0.119111	1.16281	-0.10074	0	0	-0.412087	0.138304	0.00429263	0.326069	-0.358554	1.4648	0.508255	0.139958	0	0	0.178004	-0.261168	1.35175	0.568057	0.0464585	0	0
